<?xml version="1.0" encoding="UTF-8"?>
<!DOCTYPE svg PUBLIC "-//W3C//DTD SVG 1.1//EN" "http://www.w3.org/Graphics/SVG/1.1/DTD/svg11.dtd">
<svg version="1.1" xmlns="http://www.w3.org/2000/svg" xmlns:xlink="http://www.w3.org/1999/xlink" x="0px" y="0px" width="612" height="792" viewBox="0, 0, 612, 792">
  <g id="Layer 1">
    <path d="M159.5,393.5 C135.752,393.5 116.5,374.696 116.5,351.5" fill-opacity="0" stroke="#000000" stroke-width="1"/>
    <path d="M159.5,393.5 L275.5,393.5" fill-opacity="0" stroke="#000000" stroke-width="1"/>
    <path d="M116.5,351.5 C116.5,258.164 173.711,203.5 186.604,182.5" fill-opacity="0" stroke="#000000" stroke-width="1"/>
    <path d="M344.863,393.5 C366.232,393.5 383.555,374.696 383.555,351.5" fill-opacity="0" stroke="#000000" stroke-width="1"/>
    <path d="M344.863,393.5 L240.484,393.5" fill-opacity="0" stroke="#000000" stroke-width="1"/>
    <path d="M383.555,351.5 C383.555,258.164 304.921,173.5 312.268,182.5" fill-opacity="0" stroke="#000000" stroke-width="1"/>
    <path d="M186.604,182.5 C198.691,164.5 205.137,154.5 207.555,128.707" fill-opacity="0" stroke="#000000" stroke-width="1"/>
    <path d="M312.081,182.5 C298.127,164.5 290.684,154.5 287.894,128.707" fill-opacity="0" stroke="#000000" stroke-width="1"/>
    <path d="M248.24,128.707 C220.33,128.707 197.706,126.517 197.706,123.816 C197.706,121.115 220.33,118.926 248.24,118.926 C276.149,118.926 298.773,121.115 298.773,123.816 C298.773,126.517 276.149,128.707 248.24,128.707 z" fill-opacity="0" stroke="#000000" stroke-width="4"/>
  </g>
  <defs/>
</svg>
