<?xml version="1.0" encoding="UTF-8"?>
<!DOCTYPE svg PUBLIC "-//W3C//DTD SVG 1.1//EN" "http://www.w3.org/Graphics/SVG/1.1/DTD/svg11.dtd">
<svg version="1.1" xmlns="http://www.w3.org/2000/svg" xmlns:xlink="http://www.w3.org/1999/xlink" x="0px" y="0px" width="100" height="94.6" viewBox="0, 0, 100, 94.6">
  <g id="Layer 1">
    <path d="M50.07,19.173 L17.232,48.248 L17.232,89.796 C17.232,90.869 18.099,91.729 19.172,91.729 L39.695,91.729 L39.695,73.513 C39.695,72.44 40.556,71.573 41.629,71.573 L58.493,71.573 C59.566,71.573 60.426,72.44 60.426,73.513 L60.426,91.729 L80.956,91.729 C82.029,91.729 82.89,90.869 82.89,89.796 L82.89,48.236 L50.07,19.173 z M59.567,59.73 L41.223,59.73 L41.223,48.443 L59.567,48.443 L59.567,59.73 z" fill="#000000"/>
    <path d="M17.232,9.204 L29.039,9.204 L28.935,16.196 L17.232,26.768 L17.232,9.204 z" fill="#000000"/>
    <path d="M49.88,5.334 L3.306,46.57 L8.211,52.105 L50.07,15.041 L91.919,52.105 L96.816,46.57 L50.251,5.334 L50.061,5.17 L49.88,5.334 z" fill="#000000"/>
  </g>
  <defs/>
</svg>
